<svg width="20" height="20" viewBox="0 0 20 20" fill="none" xmlns="http://www.w3.org/2000/svg">
<g id="Password">
<g id="Iconly/Light outline/Password">
<g id="Password_2">
<path id="Vector" d="M13.612 1.66699C16.4485 1.66699 18.3337 3.69158 18.3337 6.59699V13.4037C18.3337 16.3092 16.4483 18.3337 13.6112 18.3337H6.38783C3.55147 18.3337 1.66699 16.3092 1.66699 13.4037V6.59699C1.66699 3.69416 3.55651 1.66699 6.38783 1.66699H13.612ZM13.612 2.91699H6.38783C4.26727 2.91699 2.91699 4.36564 2.91699 6.59699V13.4037C2.91699 15.6381 4.26263 17.0837 6.38783 17.0837H13.6112C15.7373 17.0837 17.0837 15.638 17.0837 13.4037V6.59699C17.0837 4.3628 15.7374 2.91699 13.612 2.91699ZM7.36691 7.83199C8.3471 7.83199 9.17549 8.48279 9.44381 9.37553L11.8053 9.37503C11.8095 9.37495 11.8138 9.37491 11.818 9.37491L11.8295 9.37533H14.1752C14.4917 9.37533 14.7532 9.61045 14.7945 9.91552L14.8002 10.0003V11.5437C14.8002 11.8888 14.5204 12.1687 14.1752 12.1687C13.8588 12.1687 13.5973 11.9335 13.5559 11.6285L13.5502 11.5437L13.55 10.6252L12.4428 10.6245L12.443 11.5432C12.443 11.8884 12.1632 12.1682 11.818 12.1682C11.5016 12.1682 11.2401 11.9331 11.1987 11.628L11.193 11.5432L11.1928 10.6253L9.44357 10.6259C9.18761 11.4763 8.42341 12.107 7.50403 12.1644L7.36691 12.1687C6.17012 12.1687 5.19941 11.1972 5.19941 10.0003C5.19941 8.80343 6.17012 7.83199 7.36691 7.83199ZM7.36691 9.08199C6.86068 9.08199 6.44941 9.49357 6.44941 10.0003C6.44941 10.5071 6.86068 10.9187 7.36691 10.9187C7.87389 10.9187 8.28524 10.5072 8.28524 10.0003C8.28524 9.4935 7.87389 9.08199 7.36691 9.08199Z" fill="#9CA3AF"/>
</g>
</g>
</g>
</svg>
