<svg width="20" height="20" viewBox="0 0 20 20" fill="none" xmlns="http://www.w3.org/2000/svg">
<g id="Iconly/Light-outline/Show">
<g id="Show">
<path id="Show_2" fill-rule="evenodd" clip-rule="evenodd" d="M10.2402 3.33702L10.0017 3.33301C6.55092 3.33301 3.44107 5.76891 1.71745 9.75454C1.64977 9.91104 1.64977 10.0883 1.71745 10.2448L1.83689 10.5137C3.53867 14.244 6.47956 16.5533 9.75985 16.6623L9.99835 16.6663C13.4491 16.6663 16.559 14.2304 18.2826 10.2448C18.3511 10.0863 18.3502 9.90667 18.2801 9.74888L18.1641 9.4877C16.4581 5.75044 13.516 3.4459 10.2402 3.33702ZM10.0075 4.5742L10.2066 4.57848L10.4292 4.59006C13.0935 4.77871 15.5438 6.75429 17.0242 9.99894L17.0164 10.019C15.499 13.3334 12.9641 15.3207 10.2158 15.4205L10.0034 15.4237L9.78914 15.4208L9.5672 15.4093C6.98562 15.2264 4.60534 13.3617 3.11598 10.2994L2.97503 9.99894L3.10551 9.72151C4.67601 6.4773 7.24293 4.5749 10.0075 4.5742ZM9.9996 6.7609C8.19927 6.7609 6.74044 8.21063 6.74044 9.99985C6.74044 11.7884 8.19943 13.238 9.9996 13.238C11.7999 13.238 13.2596 11.7883 13.2596 9.99985C13.2596 8.21073 11.8 6.7609 9.9996 6.7609ZM9.9996 8.00282C11.1097 8.00282 12.0096 8.89668 12.0096 9.99984C12.0096 11.1023 11.1096 11.996 9.9996 11.996C8.88978 11.996 7.99044 11.1025 7.99044 9.99984C7.99044 8.89646 8.88968 8.00282 9.9996 8.00282Z" fill="#9CA3AF"/>
</g>
</g>
</svg>
