<svg width="24" height="24" viewBox="0 0 24 24" fill="none" xmlns="http://www.w3.org/2000/svg">
<path fill-rule="evenodd" clip-rule="evenodd" d="M12 24C18.6274 24 24 18.6274 24 12C24 5.37258 18.6274 0 12 0C5.37258 0 0 5.37258 0 12C0 18.6274 5.37258 24 12 24ZM17.0472 9.51296C17.3305 9.21077 17.3151 8.73615 17.013 8.45285C16.7108 8.16955 16.2361 8.18486 15.9528 8.48704L10.875 13.9034L8.04715 10.887C7.76385 10.5849 7.28923 10.5695 6.98704 10.8528C6.68486 11.1361 6.66955 11.6108 6.95285 11.913L10.3278 15.513C10.4696 15.6642 10.6677 15.75 10.875 15.75C11.0823 15.75 11.2804 15.6642 11.4222 15.513L17.0472 9.51296Z" fill="#B376F7"/>
</svg>
